<?xml version="1.0" encoding="UTF-8"?>
<svg version="1.1" xmlns="http://www.w3.org/2000/svg" width="5504" height="755">
<path d="M0 0 C46.86 0 93.72 0 142 0 C147.72613726 6.29875098 153.20963971 12.40836345 158.52734375 18.9921875 C161.41680275 22.50701125 164.38678693 25.94413715 167.375 29.375 C171.92659717 34.60142093 176.43852393 39.85710781 180.90576172 45.15576172 C184.25071239 49.12100023 187.61994922 53.06465129 191 57 C195.3077251 62.01633723 199.58994615 67.05322153 203.85546875 72.10546875 C207.21902365 76.08583601 210.60499713 80.04643624 214 84 C218.30766901 89.01638576 222.58994574 94.05322104 226.85546875 99.10546875 C230.21902365 103.08583601 233.60499713 107.04643624 237 111 C241.30766901 116.01638576 245.58994574 121.05322104 249.85546875 126.10546875 C253.21902365 130.08583601 256.60499713 134.04643624 260 138 C264.30766901 143.01638576 268.58994574 148.05322104 272.85546875 153.10546875 C276.21902365 157.08583601 279.60499713 161.04643624 283 165 C287.30766901 170.01638576 291.58994574 175.05322104 295.85546875 180.10546875 C299.21902365 184.08583601 302.60499713 188.04643624 306 192 C310.30766901 197.01638576 314.58994574 202.05322104 318.85546875 207.10546875 C322.21902365 211.08583601 325.60499713 215.04643624 329 219 C333.30766901 224.01638576 337.58994574 229.05322104 341.85546875 234.10546875 C345.21902365 238.08583601 348.60499713 242.04643624 352 246 C356.30766901 251.01638576 360.58994574 256.05322104 364.85546875 261.10546875 C368.21902464 265.08583718 371.60512972 269.0463213 375 273 C378.90723098 277.5528667 382.80716054 282.11168007 386.6875 286.6875 C387.49574219 287.64011719 388.30398438 288.59273438 389.13671875 289.57421875 C393.12931283 294.35116965 397.05761452 299.18152886 401 304 C401.33 203.68 401.66 103.36 402 0 C449.19 0 496.38 0 545 0 C545 165.66 545 331.32 545 502 C497.81 502 450.62 502 402 502 C396.27386274 495.70124902 390.79036029 489.59163655 385.47265625 483.0078125 C382.58319725 479.49298875 379.61321307 476.05586285 376.625 472.625 C372.07340283 467.39857907 367.56147607 462.14289219 363.09423828 456.84423828 C359.74928761 452.87899977 356.38005078 448.93534871 353 445 C348.6922749 439.98366277 344.41005385 434.94677847 340.14453125 429.89453125 C336.78097635 425.91416399 333.39500287 421.95356376 330 418 C325.69233099 412.98361424 321.41005426 407.94677896 317.14453125 402.89453125 C313.78097635 398.91416399 310.39500287 394.95356376 307 391 C302.69233099 385.98361424 298.41005426 380.94677896 294.14453125 375.89453125 C290.78097635 371.91416399 287.39500287 367.95356376 284 364 C279.69233099 358.98361424 275.41005426 353.94677896 271.14453125 348.89453125 C267.78097635 344.91416399 264.39500287 340.95356376 261 337 C256.69233099 331.98361424 252.41005426 326.94677896 248.14453125 321.89453125 C244.78097635 317.91416399 241.39500287 313.95356376 238 310 C233.69233099 304.98361424 229.41005426 299.94677896 225.14453125 294.89453125 C221.78097635 290.91416399 218.39500287 286.95356376 215 283 C210.69233099 277.98361424 206.41005426 272.94677896 202.14453125 267.89453125 C198.78097635 263.91416399 195.39500287 259.95356376 192 256 C187.69233099 250.98361424 183.41005426 245.94677896 179.14453125 240.89453125 C175.78097536 236.91416282 172.39487028 232.9536787 169 229 C165.09276902 224.4471333 161.19283946 219.88831993 157.3125 215.3125 C156.50425781 214.35988281 155.69601563 213.40726563 154.86328125 212.42578125 C150.87068717 207.64883035 146.94238548 202.81847114 143 198 C142.67 298.32 142.34 398.64 142 502 C95.14 502 48.28 502 0 502 C0 336.34 0 170.68 0 0 Z " fill="#000000" transform="translate(2780,125)"/>
<path d="M0 0 C310.48060919 0 310.48060919 0 358.5625 47.25 C388.37420603 77.27608431 402.23960256 117.5394069 402.25097656 159.33886719 C401.9166431 196.99697288 389.29462206 231.63814723 362.53173828 258.53417969 C341.22968621 278.91950334 313.2506424 290.20929716 285 297 C286.68921142 301.08809153 289.55482866 304.1562818 292.4375 307.4375 C293.52640975 308.69238903 294.6149431 309.94760476 295.703125 311.203125 C296.25419922 311.83669922 296.80527344 312.47027344 297.37304688 313.12304688 C299.83223171 315.96011365 302.26292796 318.82084075 304.6875 321.6875 C305.14253906 322.22503906 305.59757812 322.76257813 306.06640625 323.31640625 C308.89145578 326.66250238 311.67518064 330.039251 314.4375 333.4375 C317.89274151 337.68392382 321.42697834 341.85296294 325 346 C329.31928956 351.01319488 333.55097119 356.0853732 337.72265625 361.22265625 C340.28203972 364.34396267 342.88589916 367.42453424 345.5 370.5 C348.85447127 374.44650481 352.17221829 378.41642072 355.4375 382.4375 C359.39508188 387.30129025 363.46542446 392.05881231 367.55834961 396.80834961 C371.33334391 401.1980035 375.00728461 405.66114771 378.65625 410.15625 C381.39302138 413.47686594 384.19106385 416.74043709 387 420 C391.32172863 425.01591689 395.55479196 430.09175299 399.73046875 435.23046875 C404.08505794 440.54441666 408.55078435 445.76526766 413 451 C418.19219022 457.10888035 423.38123581 463.21510641 428.4375 469.4375 C431.89275828 473.68394443 435.42745987 477.85252964 439 482 C442.77755406 486.39400272 446.54263563 490.7964994 450.25 495.25 C450.97703125 496.12140625 451.7040625 496.9928125 452.453125 497.890625 C454 500 454 500 454 502 C431.01710828 502.4445906 408.03492896 502.77924741 385.04860401 502.98443127 C374.37444314 503.0822529 363.70295937 503.21550553 353.03051758 503.43334961 C343.72399865 503.62322152 334.41941845 503.74541591 325.11101645 503.7876814 C320.18468965 503.81237919 315.26390661 503.87002924 310.33936501 504.00887108 C280.38656257 504.82147145 280.38656257 504.82147145 273.10078239 500.1352005 C268.68351247 495.7947844 266.07116202 490.9548056 263.88729858 485.2072506 C262.70537684 482.26709323 261.0027439 479.8783539 259.08984375 477.3671875 C258.56197266 476.61373047 258.03410156 475.86027344 257.49023438 475.08398438 C256.97783203 474.35501953 256.46542969 473.62605469 255.9375 472.875 C255.35935547 472.05064453 254.78121094 471.22628906 254.18554688 470.37695312 C249.98207626 464.38712259 245.76298952 458.40834908 241.53881836 452.43310547 C237.07577322 446.1167932 232.64283259 439.77959683 228.2109375 433.44140625 C224.48715773 428.11820565 220.75028886 422.80455295 217 417.5 C212.04814271 410.49590239 207.12636217 403.47110748 202.2109375 396.44140625 C198.48715752 391.11820536 194.75023841 385.80458881 191 380.5 C183.69946564 370.17196981 176.45641434 359.80380306 169.20898438 349.43847656 C162.88033294 340.38815919 156.54730545 331.34096361 150.1875 322.3125 C149.67751465 321.58716064 149.1675293 320.86182129 148.64208984 320.11450195 C146.49127299 316.91869756 146.49127299 316.91869756 144 314 C143.67 376.04 143.34 438.08 143 502 C95.81 502 48.62 502 0 502 C0 336.34 0 170.68 0 0 Z M143 101 C143 141.92 143 182.84 143 225 C195.46682483 226.21464615 195.46682483 226.21464615 240.78125 202.44921875 C251.81129136 190.27345126 256.61722399 175.29272177 255.875 159 C254.79622768 147.84028633 251.43801612 138.17621032 245 129 C244.58363281 128.38769531 244.16726562 127.77539062 243.73828125 127.14453125 C236.86546269 118.12524684 225.39253666 111.93745403 215 108 C214.06414063 107.64292969 213.12828125 107.28585938 212.1640625 106.91796875 C189.76109524 99.22954682 166.55335907 101 143 101 Z " fill="#000000" transform="translate(1858,125)"/>
<path d="M0 0 C51.48 0 102.96 0 156 0 C162.6 16.17 169.2 32.34 176 49 C180.68551364 60.42981357 185.37174857 71.85927811 190.06445312 83.28613281 C193.04355878 90.54077183 196.01960926 97.7966644 198.99597168 105.0524292 C200.66386372 109.1183343 202.33194097 113.18416341 204 117.25 C204.66666756 118.87499963 205.33333423 120.49999963 206 122.125 C206.33 122.929375 206.66 123.73375 207 124.5625 C225.99999999 170.87499997 225.99999999 170.87499997 227.00003052 173.31257629 C227.66659367 174.93732271 228.33315861 176.5620684 228.99972534 178.18681335 C230.66799039 182.25318712 232.33622425 186.31957368 234.00439453 190.38598633 C236.98528635 197.65226765 239.96637735 204.91846684 242.94866943 212.18417358 C250.69212904 231.04949201 258.42396505 249.91951211 266.14294434 268.79486084 C273.42609893 286.6038838 280.72616363 304.40593136 288.03222656 322.20556641 C291.02176135 329.48914336 294.00980563 336.77333183 296.99798584 344.0574646 C298.66526507 348.1216672 300.33263716 352.1858317 302 356.25 C302.66666711 357.87499982 303.33333378 359.49999982 304 361.125 C304.33 361.929375 304.66 362.73375 305 363.5625 C311.33333333 379 317.66666667 394.4375 324 409.875 C324.32995468 410.67926422 324.65990936 411.48352844 324.99986267 412.31216431 C325.66698799 413.93828292 326.33411242 415.5644019 327.00123596 417.19052124 C328.66087788 421.23590948 330.32053498 425.28129149 331.98022461 429.32666016 C335.06379779 436.84268291 338.14722872 444.35876391 341.23013306 451.87506104 C342.66321099 455.36896099 344.09637313 458.8628264 345.52954102 462.35668945 C346.20308534 463.99876218 346.87658986 465.64085124 347.55004883 467.28295898 C348.184427 468.82977018 348.81889603 470.37654411 349.45346069 471.92327881 C350.06361011 473.41093677 350.67334071 474.89876659 351.28262329 476.38677979 C352.8488067 480.20886159 354.4260483 484.02592112 356.01904297 487.83691406 C356.34533188 488.62043243 356.67162079 489.40395081 357.00779724 490.21121216 C357.63219674 491.70956787 358.25939804 493.20675999 358.88978577 494.7026062 C361 499.77587094 361 499.77587094 361 502 C310.84 502 260.68 502 209 502 C206.66804763 497.33609527 204.48529008 492.96342595 202.56152344 488.17675781 C202.1271698 487.10073303 201.69281616 486.02470825 201.24530029 484.91607666 C200.78794495 483.77330261 200.3305896 482.63052856 199.859375 481.453125 C199.13056122 479.64349274 199.13056122 479.64349274 198.38702393 477.79730225 C197.09828689 474.59719615 195.81357978 471.39548741 194.52972412 468.19342041 C193.25018614 465.00424085 191.96671036 461.81664727 190.68359375 458.62890625 C188.70270508 453.70654667 186.72591572 448.78256454 184.75195312 443.85742188 C183.00365875 439.49597727 181.24768708 435.13780534 179.48242188 430.78320312 C179.104505 429.84780701 178.72658813 428.91241089 178.33721924 427.94866943 C177.6429636 426.23064673 176.94614372 424.51365712 176.24627686 422.7979126 C174 417.22541519 174 417.22541519 174 415 C109.32 415 44.64 415 -22 415 C-22.33 416.65 -22.66 418.3 -23 420 C-23.96706106 422.45844305 -24.96930437 424.86672451 -26.03515625 427.28125 C-26.34567429 427.99557693 -26.65619232 428.70990387 -26.97612 429.44587708 C-28.000335 431.79927717 -29.03137359 434.14962089 -30.0625 436.5 C-30.77881018 438.1419576 -31.49462315 439.7841322 -32.20996094 441.42651367 C-33.32592548 443.98823346 -34.44238277 446.54973003 -35.5607605 449.11039734 C-38.2188806 455.19733152 -40.85577486 461.29311558 -43.48046875 467.39453125 C-44.20368101 469.07422463 -44.92690673 470.75391221 -45.65014648 472.43359375 C-46.69181572 474.85310171 -47.73296513 477.27282504 -48.77224731 479.69335938 C-49.73662107 481.93844106 -50.70394146 484.18223247 -51.671875 486.42578125 C-52.08973518 487.40174004 -52.08973518 487.40174004 -52.51603699 488.39741516 C-54.52192641 493.03683953 -56.73016252 497.46032504 -59 502 C-108.5 502 -158 502 -209 502 C-208.29110973 498.45554866 -207.68710521 495.92733553 -206.33618164 492.70849609 C-205.99322556 491.8849614 -205.65026947 491.0614267 -205.29692078 490.2129364 C-204.92178848 489.32540176 -204.54665619 488.43786713 -204.16015625 487.5234375 C-203.57008537 486.11195183 -203.57008537 486.11195183 -202.96809387 484.67195129 C-201.67057555 481.57112656 -200.36654821 478.47308359 -199.0625 475.375 C-198.15142598 473.20110768 -197.24078704 471.02703298 -196.33056641 468.8527832 C-194.46291533 464.39349219 -192.59269615 459.93529223 -190.72021484 455.47802734 C-188.24163486 449.57746286 -185.76961254 443.6741803 -183.30078125 437.76953125 C-180.34595673 430.7035012 -177.38919051 423.63829066 -174.4296875 416.57421875 C-170.32691169 406.78111286 -166.22660884 396.98697335 -162.12701416 387.1925354 C-160.25144886 382.71164586 -158.37571609 378.23082642 -156.5 373.75 C-155.74999919 371.95833367 -154.99999919 370.166667 -154.25 368.375 C-152.75 364.79166667 -151.25 361.20833333 -149.75 357.625 C-149.37873993 356.73809982 -149.00747986 355.85119965 -148.62496948 354.93742371 C-147.87507443 353.14601 -147.12517615 351.35459765 -146.37527466 349.56318665 C-144.49864256 345.08016067 -142.62206666 340.59711119 -140.74560547 336.11401367 C-137.39014201 328.09754824 -134.03431624 320.08123572 -130.67633057 312.06582642 C-122.43139295 292.38530911 -114.2027263 272.69815186 -106 253 C-97.4305292 232.42114231 -88.83138056 211.85485091 -80.21777344 191.29443359 C-76.85247992 183.26118222 -73.48986792 175.22680831 -70.12701416 167.1925354 C-68.25144886 162.71164586 -66.37571609 158.23082642 -64.5 153.75 C-63.74999919 151.95833367 -62.99999919 150.166667 -62.25 148.375 C-39.75 94.62500001 -39.75 94.62500001 -38.62518311 91.9379425 C-37.87456792 90.14480284 -37.12395758 88.35166116 -36.37335205 86.55851746 C-34.50780383 82.10187106 -32.64217379 77.64525894 -30.77636719 73.1887207 C-27.28869569 64.85806471 -23.80183264 56.52707306 -20.31774902 48.19491577 C-18.68756529 44.29648107 -17.05693357 40.39823382 -15.42626953 36.5 C-14.65553884 34.657157 -13.8850231 32.81422408 -13.11474609 30.97119141 C-12.04059936 28.40113248 -10.96568313 25.83139654 -9.890625 23.26171875 C-9.58505676 22.53002975 -9.27948853 21.79834076 -8.96466064 21.04447937 C-6.02015141 14.01012895 -3.00435413 7.01015965 0 0 Z M77 157 C62.37480448 195.69183382 47.83371546 234.41337968 33.45556641 273.19775391 C33.19329191 273.90513577 32.93101742 274.61251762 32.66079521 275.3413353 C31.40613675 278.72560517 30.15225042 282.11015674 28.90011597 285.49536133 C26.93327766 290.80860848 24.96292609 296.11964565 22.93945312 301.41162109 C22.64895081 302.17339157 22.35844849 302.93516205 22.05914307 303.72001648 C21.3437891 305.58877624 20.62199449 307.45506747 19.89941406 309.32104492 C18.84086272 312.00301492 18.84086272 312.00301492 19 315 C57.28 315 95.56 315 135 315 C128.20187858 295.22647632 128.20187858 295.22647632 121.08984375 275.57421875 C120.24458322 273.29339258 119.39937015 271.01254882 118.55419922 268.73168945 C118.12717712 267.58237946 117.70015503 266.43306946 117.26019287 265.24893188 C114.95856961 259.05166974 112.66684033 252.85076411 110.37890625 246.6484375 C110.14940277 246.02634462 109.91989929 245.40425175 109.68344116 244.76330757 C104.48185644 230.65508181 99.44274529 216.49109268 94.43139648 202.31445312 C89.0746543 187.16470226 83.58341082 172.06763483 78 157 C77.67 157 77.34 157 77 157 Z " fill="#000000" transform="translate(3571,125)"/>
<path d="M0 0 C51.48 0 102.96 0 156 0 C163.425 18.315 163.425 18.315 171 37 C173.64007249 43.46079853 176.28247459 49.92037732 178.9375 56.375 C179.59839738 57.98368695 180.2592013 59.5924123 180.91992188 61.20117188 C182.27422733 64.49851613 183.62890874 67.79570549 184.98388672 71.09277344 C187.99282728 78.41536002 190.99672677 85.74001469 194.00100708 93.06451416 C195.66713159 97.12642748 197.3335823 101.18820696 199 105.25 C199.66666823 106.87499936 200.3333349 108.49999936 201 110.125 C201.33 110.929375 201.66 111.73375 202 112.5625 C252.99999999 236.87499999 252.99999999 236.87499999 254.00003052 239.31257629 C254.66659367 240.93732271 255.33315861 242.5620684 255.99972534 244.18681335 C257.66799039 248.25318712 259.33622425 252.31957368 261.00439453 256.38598633 C263.98528635 263.65226765 266.96637735 270.91846684 269.94866943 278.18417358 C277.69212904 297.04949201 285.42396505 315.91951211 293.14294434 334.79486084 C300.42609893 352.6038838 307.72616363 370.40593136 315.03222656 388.20556641 C318.02213575 395.49005554 321.010538 402.7751629 323.99908447 410.06021118 C324.99654867 412.49158719 325.99410892 414.92292377 326.99169922 417.35424805 C330.02969245 424.75858274 333.06717909 432.16312358 336.10241699 439.56858826 C337.47901032 442.92714012 338.85594543 446.28555181 340.23291016 449.64395142 C340.90657283 451.28725739 341.58007754 452.93062812 342.25341797 454.57406616 C345.70555422 462.99947335 349.16796403 471.42019322 352.671875 479.82421875 C352.95790588 480.5112085 353.24393677 481.19819824 353.53863525 481.90600586 C354.87073548 485.10536058 356.20606522 488.30322124 357.54785156 491.49853516 C358.00643555 492.59858887 358.46501953 493.69864258 358.9375 494.83203125 C359.33839844 495.78827393 359.73929688 496.7445166 360.15234375 497.72973633 C361 500 361 500 361 502 C310.51 502 260.02 502 208 502 C200.74 483.85 193.48 465.7 186 447 C180.38397849 433.05091433 180.38397849 433.05091433 174.75244141 419.1081543 C174 417 174 417 174 415 C109.32 415 44.64 415 -22 415 C-22.33 416.65 -22.66 418.3 -23 420 C-23.63256685 421.68070747 -24.31453293 423.34332767 -25.03442383 424.98852539 C-25.45646591 425.95973831 -25.878508 426.93095123 -26.31333923 427.93159485 C-26.7732576 428.97639511 -27.23317596 430.02119537 -27.70703125 431.09765625 C-28.18431168 432.19277023 -28.6615921 433.28788422 -29.15333557 434.41618347 C-30.70189367 437.96693829 -32.2571437 441.51471849 -33.8125 445.0625 C-35.39507856 448.68593393 -36.97605972 452.31006201 -38.5569458 455.93423462 C-39.5970165 458.31825589 -40.63766297 460.70202606 -41.67889404 463.08554077 C-46.11601368 473.24686095 -50.49018786 483.4338041 -54.81176758 493.64477539 C-55.23224365 494.63340576 -55.65271973 495.62203613 -56.0859375 496.640625 C-56.4370459 497.47110352 -56.7881543 498.30158203 -57.14990234 499.15722656 C-58 501 -58 501 -59 502 C-60.936283 502.09662973 -62.87614262 502.12187144 -64.81483459 502.12025452 C-66.07833237 502.12162918 -67.34183014 502.12300385 -68.64361572 502.12442017 C-70.05676293 502.12088055 -71.4699099 502.11724574 -72.88305664 502.11352539 C-74.36101784 502.11324353 -75.83897919 502.11340124 -77.31694031 502.1139679 C-81.34155828 502.1142559 -85.36614672 502.1083587 -89.3907578 502.10139394 C-93.59216365 502.09516088 -97.7935701 502.09455664 -101.99497986 502.09336853 C-109.95646257 502.09025507 -117.91793162 502.08204149 -125.8794083 502.07201904 C-134.94092589 502.06085836 -144.00244412 502.05534757 -153.06396687 502.05032361 C-171.709319 502.03985888 -190.35465841 502.02225916 -209 502 C-208.16591634 497.41412606 -206.6203481 493.3351459 -204.81640625 489.0546875 C-204.48974976 488.2693866 -204.16309326 487.48408569 -203.82653809 486.67498779 C-202.7429323 484.07312921 -201.65275345 481.47407925 -200.5625 478.875 C-199.79380675 477.03320004 -199.02550319 475.1912374 -198.25756836 473.34912109 C-196.24343891 468.52104372 -194.2236251 463.69536637 -192.20214844 458.87036133 C-190.66878853 455.20916871 -189.13811423 451.54685683 -187.6075592 447.88449097 C-183.87714132 438.95852116 -180.14033825 430.03523765 -176.40040588 421.11325073 C-172.63848706 412.13863233 -168.88101982 403.16215301 -165.12399292 394.18548584 C-163.24951476 389.70691264 -161.3747425 385.22846255 -159.5 380.75 C-158.74999859 378.95833392 -157.99999859 377.16666726 -157.25 375.375 C-149.75 357.45833333 -142.25 339.54166667 -134.75 321.625 C-134.37873993 320.73809982 -134.00747986 319.85119965 -133.62496948 318.93742371 C-132.87507443 317.14601 -132.12517615 315.35459765 -131.37527466 313.56318665 C-129.49864256 309.08016067 -127.62206666 304.59711119 -125.74560547 300.11401367 C-122.39014201 292.09754824 -119.03431624 284.08123572 -115.67633057 276.06582642 C-107.43139295 256.38530911 -99.2027263 236.69815186 -91 217 C-82.4305292 196.42114231 -73.83138056 175.85485091 -65.21777344 155.29443359 C-61.85247992 147.26118222 -58.48986792 139.22680831 -55.12701416 131.1925354 C-53.25144886 126.71164586 -51.37571609 122.23082642 -49.5 117.75 C-48.74999919 115.95833367 -47.99999919 114.166667 -47.25 112.375 C-42.75 101.625 -42.75 101.625 -41.62513733 98.93783569 C-40.87467232 97.14505308 -40.12421456 95.35226743 -39.37376404 93.55947876 C-37.50593796 89.0973612 -35.6379884 84.63529542 -33.76977539 80.17333984 C-30.30936105 71.90828438 -26.85007423 63.64276319 -23.39511108 55.37542725 C-21.79423692 51.5449268 -20.19267356 47.71471468 -18.59106445 43.88452148 C-17.84072366 42.08957927 -17.09070621 40.29450185 -16.34106445 38.49926758 C-15.98939209 37.65710693 -15.63771973 36.81494629 -15.27539062 35.94726562 C-14.97193726 35.22027466 -14.66848389 34.49328369 -14.35583496 33.7442627 C-9.63275422 22.46700368 -4.81700098 11.23966895 0 0 Z M77 157 C71.37802455 171.76492715 65.78126847 186.53874121 60.265625 201.34375 C60.02499769 201.98960682 59.78437038 202.63546364 59.53645134 203.30089188 C58.28916968 206.64924002 57.04248968 209.99781183 55.79611206 213.34649658 C48.6526861 232.53835073 41.49400823 251.72424294 34.26171875 270.8828125 C33.99206173 271.59723763 33.72240471 272.31166275 33.44457626 273.04773712 C30.84899012 279.92367359 28.25091817 286.79866304 25.64792919 293.67180061 C24.9293675 295.56972516 24.21147667 297.46790189 23.49385071 299.36618042 C22.62008223 301.67703503 21.74497666 303.98738466 20.86833191 306.29714966 C20.48760025 307.3046225 20.10686859 308.31209534 19.71459961 309.35009766 C19.3814122 310.22944977 19.04822479 311.10880188 18.7049408 312.01480103 C17.94422881 313.80595081 17.94422881 313.80595081 18 315 C56.61 315 95.22 315 135 315 C129.75159425 299.83793894 124.50237771 284.72276308 118.90795898 269.69189453 C116.21994239 262.4593951 113.54139792 255.22343043 110.87109375 247.984375 C110.63582285 247.34662769 110.40055195 246.70888039 110.15815163 246.0518074 C101.76007919 223.27316691 93.60140091 200.40682969 85.42359924 177.54840088 C82.96964191 170.69136254 80.49644262 163.84168887 78 157 C77.67 157 77.34 157 77 157 Z " fill="#000000" transform="translate(1462,125)"/>
<path d="M0 0 C120.12 0 240.24 0 364 0 C364 36.96 364 73.92 364 112 C290.74 112 217.48 112 142 112 C142 139.06 142 166.12 142 194 C212.29 194 282.58 194 355 194 C355 230.63 355 267.26 355 305 C284.71 305 214.42 305 142 305 C142 333.38 142 361.76 142 391 C215.26 391 288.52 391 364 391 C364 427.63 364 464.26 364 502 C243.88 502 123.76 502 0 502 C0 336.34 0 170.68 0 0 Z " fill="#000000" transform="translate(2345,125)"/>
<path d="M0 0 C3.37052055 1.12350685 3.69333942 1.61673753 5.54248047 4.47021484 C6.03042084 5.21399384 6.51836121 5.95777283 7.02108765 6.72409058 C7.5478006 7.54475006 8.07451355 8.36540955 8.6171875 9.2109375 C9.45740952 10.4973967 9.45740952 10.4973967 10.31460571 11.80984497 C11.53310006 13.67688638 12.74798297 15.54628847 13.9597168 17.41772461 C17.23474889 22.47450774 20.53679646 27.51361426 23.8359375 32.5546875 C24.85545502 34.11464447 24.85545502 34.11464447 25.89556885 35.70611572 C32.65970798 46.04156965 39.56889683 56.27610774 46.5 66.5 C56.89082412 81.84261616 67.14164458 97.27107135 77.3125 112.76025391 C86.27705077 126.40752664 95.34643413 139.97884778 104.5 153.5 C115.69093537 170.03198185 126.74124278 186.65138844 137.69189453 203.34350586 C143.17960186 211.70542881 148.68608514 220.05077551 154.30078125 228.328125 C155.25972123 229.74631288 156.21862546 231.16452494 157.17749023 232.58276367 C158.92498641 235.16627493 160.68521913 237.74040942 162.45336914 240.30981445 C163.2167969 241.43668106 163.97976793 242.56385728 164.7421875 243.69140625 C165.73001221 245.13302124 165.73001221 245.13302124 166.73779297 246.60375977 C167.15432129 247.39451904 167.57084961 248.18527832 168 249 C166.88024077 252.35927769 166.26397398 252.80914756 163.484375 254.79296875 C162.73865234 255.33244141 161.99292969 255.87191406 161.22460938 256.42773438 C160.40798828 257.00845703 159.59136719 257.58917969 158.75 258.1875 C157.00402035 259.45018186 155.25927228 260.71456805 153.515625 261.98046875 C152.60619141 262.63966309 151.69675781 263.29885742 150.75976562 263.97802734 C146.28963339 267.25311892 141.89618709 270.62666785 137.5 274 C130.11434591 279.65451428 122.66803429 285.21471736 115.1640625 290.7109375 C109.22328567 295.07277032 103.3524674 299.52054548 97.5 304 C90.11358208 309.65353395 82.66805534 315.21470194 75.1640625 320.7109375 C69.22328567 325.07277032 63.3524674 329.52054548 57.5 334 C50.11358208 339.65353395 42.66805534 345.21470194 35.1640625 350.7109375 C29.22328567 355.07277032 23.3524674 359.52054548 17.5 364 C10.11358208 369.65353395 2.66805534 375.21470194 -4.8359375 380.7109375 C-10.77671433 385.07277032 -16.6475326 389.52054548 -22.5 394 C-29.88641792 399.65353395 -37.33194466 405.21470194 -44.8359375 410.7109375 C-50.77671433 415.07277032 -56.6475326 419.52054548 -62.5 424 C-69.88641792 429.65353395 -77.33194466 435.21470194 -84.8359375 440.7109375 C-90.77671433 445.07277032 -96.6475326 449.52054548 -102.5 454 C-109.88641792 459.65353395 -117.33194466 465.21470194 -124.8359375 470.7109375 C-130.77671433 475.07277032 -136.6475326 479.52054548 -142.5 484 C-149.88641792 489.65353395 -157.33194466 495.21470194 -164.8359375 500.7109375 C-170.77671433 505.07277032 -176.6475326 509.52054548 -182.5 514 C-189.88641792 519.65353395 -197.33194466 525.21470194 -204.8359375 530.7109375 C-210.77671433 535.07277032 -216.6475326 539.52054548 -222.5 544 C-229.88641792 549.65353395 -237.33194466 555.21470194 -244.8359375 560.7109375 C-250.77671433 565.07277032 -256.6475326 569.52054548 -262.5 574 C-269.88641792 579.65353395 -277.33194466 585.21470194 -284.8359375 590.7109375 C-290.77671433 595.07277032 -296.6475326 599.52054548 -302.5 604 C-309.88641792 609.65353395 -317.33194466 615.21470194 -324.8359375 620.7109375 C-330.77671433 625.07277032 -336.6475326 629.52054548 -342.5 634 C-349.88641792 639.65353395 -357.33194466 645.21470194 -364.8359375 650.7109375 C-370.77671433 655.07277032 -376.6475326 659.52054548 -382.5 664 C-389.88641792 669.65353395 -397.33194466 675.21470194 -404.8359375 680.7109375 C-410.77671433 685.07277032 -416.6475326 689.52054548 -422.5 694 C-429.88641792 699.65353395 -437.33194466 705.21470194 -444.8359375 710.7109375 C-451.6663801 715.72598007 -458.40075688 720.86161215 -465.12890625 726.01269531 C-471.98454982 731.25149001 -478.90714425 736.39324617 -485.87304688 741.484375 C-486.97229492 742.28875 -486.97229492 742.28875 -488.09375 743.109375 C-489.11275391 743.85477539 -489.11275391 743.85477539 -490.15234375 744.61523438 C-491.77160342 745.82882328 -493.34347459 747.10511619 -494.90625 748.390625 C-497 750 -497 750 -499 750 C-497.34012372 744.98696328 -494.44110158 740.96611082 -491.48046875 736.65234375 C-490.91890579 735.82529434 -490.35734283 734.99824493 -489.77876282 734.14613342 C-488.55966172 732.35108626 -487.33856883 730.55739057 -486.11572266 728.76489258 C-482.79906259 723.90160564 -479.49886725 719.02718271 -476.19921875 714.15234375 C-475.17506363 712.63983536 -475.17506363 712.63983536 -474.13021851 711.09677124 C-467.16267841 700.790646 -460.32448898 690.40116001 -453.5 680 C-443.34320679 664.52895911 -433.06274428 649.14804065 -422.6875 633.82275391 C-413.52310903 620.28108245 -404.4749265 606.66790396 -395.5 593 C-385.3416981 577.52993517 -375.06275981 562.14806359 -364.6875 546.82275391 C-355.52310903 533.28108245 -346.4749265 519.66790396 -337.5 506 C-327.3416981 490.52993517 -317.06275981 475.14806359 -306.6875 459.82275391 C-297.52310903 446.28108245 -288.4749265 432.66790396 -279.5 419 C-269.3416981 403.52993517 -259.06275981 388.14806359 -248.6875 372.82275391 C-239.52310903 359.28108245 -230.4749265 345.66790396 -221.5 332 C-211.3416981 316.52993517 -201.06275981 301.14806359 -190.6875 285.82275391 C-181.52310903 272.28108245 -172.4749265 258.66790396 -163.5 245 C-153.3416981 229.52993517 -143.06275981 214.14806359 -132.6875 198.82275391 C-123.52310903 185.28108245 -114.4749265 171.66790396 -105.5 158 C-95.3416981 142.52993517 -85.06275981 127.14806359 -74.6875 111.82275391 C-64.91464553 97.38199238 -55.28327082 82.85345088 -45.712677 68.27801514 C-33.34477186 49.44912498 -20.77003822 30.76260321 -8.13438416 12.11257935 C-5.40656661 8.08573537 -2.69194609 4.0509208 0 0 Z " fill="#FF6200" transform="translate(502,1)"/>
<path d="M0 0 C3.37052055 1.12350685 3.69333942 1.61673753 5.54248047 4.47021484 C6.03042084 5.21399384 6.51836121 5.95777283 7.02108765 6.72409058 C7.5478006 7.54475006 8.07451355 8.36540955 8.6171875 9.2109375 C9.45740952 10.4973967 9.45740952 10.4973967 10.31460571 11.80984497 C11.53310006 13.67688638 12.74798297 15.54628847 13.9597168 17.41772461 C17.23474889 22.47450774 20.53679646 27.51361426 23.8359375 32.5546875 C24.51561584 33.59465881 25.19529419 34.63463013 25.89556885 35.70611572 C32.65970798 46.04156965 39.56889683 56.27610774 46.5 66.5 C56.89082412 81.84261616 67.14164458 97.27107135 77.3125 112.76025391 C86.27704863 126.40752338 95.34624583 139.97897787 104.5 153.5 C114.8881986 168.84442158 125.14161684 184.2710291 135.3125 199.76025391 C144.27704863 213.40752338 153.34624583 226.97897787 162.5 240.5 C172.27098603 254.93273611 181.93324307 269.43109212 191.5 284 C201.33966444 298.98369809 211.27505163 313.89802796 221.3125 328.75 C221.92193451 329.65209198 222.53136902 330.55418396 223.15927124 331.48361206 C226.0597067 335.77663086 228.96114633 340.06896974 231.86328125 344.36083984 C236.18754394 350.75615689 240.50921928 357.15304136 244.8125 363.5625 C245.79053589 365.00737793 245.79053589 365.00737793 246.78833008 366.48144531 C247.35962646 367.33448242 247.93092285 368.18751953 248.51953125 369.06640625 C249.00526611 369.78771729 249.49100098 370.50902832 249.99145508 371.25219727 C251 373 251 373 251 375 C86 375 -79 375 -249 375 C-247.59830279 371.49575698 -246.60418992 369.16182394 -244.57104492 366.18334961 C-244.08302902 365.4630809 -243.59501312 364.74281219 -243.09220886 364.00071716 C-242.56033463 363.22575394 -242.02846039 362.45079071 -241.48046875 361.65234375 C-240.91890579 360.82529434 -240.35734283 359.99824493 -239.77876282 359.14613342 C-238.55966172 357.35108626 -237.33856883 355.55739057 -236.11572266 353.76489258 C-232.79906259 348.90160564 -229.49886725 344.02718271 -226.19921875 339.15234375 C-225.17506363 337.63983536 -225.17506363 337.63983536 -224.13021851 336.09677124 C-217.16267841 325.790646 -210.32448898 315.40116001 -203.5 305 C-193.34320679 289.52895911 -183.06274428 274.14804065 -172.6875 258.82275391 C-163.52310903 245.28108245 -154.4749265 231.66790396 -145.5 218 C-135.3416981 202.52993517 -125.06275981 187.14806359 -114.6875 171.82275391 C-105.52310903 158.28108245 -96.4749265 144.66790396 -87.5 131 C-77.3463553 115.53702762 -67.07297117 100.16160776 -56.70159912 84.84390259 C-46.60675685 69.92945332 -36.66193656 54.92086321 -26.77334595 39.86901855 C-17.98035619 26.48650268 -9.1175155 13.1644956 0 0 Z " fill="#FF6200" transform="translate(752,376)"/>
<path d="M0 0 C58.40193939 49.39723508 82.00850237 122.88439916 88.59326172 197.08447266 C95.08056024 275.19017018 78.59288027 362.39489141 28.6875 424.6875 C27.26602645 426.34719472 25.82822569 427.99303532 24.375 429.625 C23.53839844 430.58148437 22.70179687 431.53796875 21.83984375 432.5234375 C-2.83201204 460.36077288 -36.62764645 482.72051898 -74.625 485.625 C-90.02131396 486.24745622 -105.66273236 486.73371927 -120.625 482.625 C-121.81319336 482.30233154 -121.81319336 482.30233154 -123.02539062 481.97314453 C-147.98005101 474.94211646 -169.54315742 462.11420988 -188.06347656 444.13525391 C-189.57707874 442.67134786 -191.11055903 441.23129035 -192.6484375 439.79296875 C-244.86502875 390.2000262 -264.81768889 309.05127594 -266.734375 239.66552734 C-268.45911419 157.46868528 -248.06648841 75.37785313 -191.703125 13.515625 C-140.27158793 -39.87520872 -57.97485068 -46.52917201 0 0 Z M-154.625 50.625 C-155.46675781 51.45386719 -156.30851562 52.28273438 -157.17578125 53.13671875 C-196.72615863 94.32714368 -210.19394032 159.48150018 -211.625 214.625 C-211.64691406 215.42164063 -211.66882812 216.21828125 -211.69140625 217.0390625 C-213.01266611 273.94132036 -203.62128259 338.35744132 -169.625 385.625 C-168.87089844 386.69234375 -168.11679687 387.7596875 -167.33984375 388.859375 C-158.75131265 400.69112763 -148.28797256 412.14904681 -135.625 419.625 C-135.07231445 419.95193848 -134.51962891 420.27887695 -133.95019531 420.61572266 C-113.76111455 432.39178239 -91.93948136 436.48073243 -69.0625 431.0625 C-36.235886 421.36056641 -13.38623261 395.61226221 2.74609375 366.5625 C24.73527884 325.84833791 32.38326174 280.35890671 34.375 234.625 C34.41109375 233.82626465 34.4471875 233.0275293 34.484375 232.20458984 C34.66115161 227.66695515 34.5798714 223.15869424 34.375 218.625 C34.32859375 217.55942871 34.2821875 216.49385742 34.234375 215.39599609 C31.62592331 159.76631759 20.15511043 99.78306209 -17.625 56.625 C-18.64980469 55.38363281 -18.64980469 55.38363281 -19.6953125 54.1171875 C-34.887824 36.23375145 -57.51152929 22.48577864 -81.13476562 20.40380859 C-110.46710013 19.05644765 -133.91042632 30.19614458 -154.625 50.625 Z " fill="#000000" transform="translate(4631.625,149.375)"/>
<path d="M0 0 C3.38031043 0.61675839 5.44849724 1.84818909 8.16796875 3.921875 C9.37283936 4.83296021 9.37283936 4.83296021 10.60205078 5.76245117 C11.45524902 6.41834229 12.30844727 7.0742334 13.1875 7.75 C14.06647949 8.41942627 14.94545898 9.08885254 15.85107422 9.77856445 C17.6709083 11.16528391 19.48892624 12.55438979 21.30517578 13.94580078 C23.86593012 15.89780178 26.44267367 17.82592128 29.02734375 19.74609375 C30.56000427 20.89308428 32.09256157 22.04021276 33.625 23.1875 C34.34067139 23.71504883 35.05634277 24.24259766 35.79370117 24.78613281 C36.45217041 25.28338867 37.11063965 25.78064453 37.7890625 26.29296875 C38.36350098 26.7211792 38.93793945 27.14938965 39.52978516 27.59057617 C41.23723565 29.22742634 42.05924158 30.84522072 43 33 C36.88490232 41.70437327 30.74209874 50.38611122 24.5 59 C19.78802573 65.50270672 15.13364801 72.04271803 10.51513672 78.61206055 C6.92604319 83.70904329 3.28576844 88.76681434 -0.375 93.8125 C-4.98135151 100.16418373 -9.51345855 106.56316619 -14 113 C-19.01296562 120.19209372 -24.09790473 127.32605784 -29.24609375 134.421875 C-32.86978604 139.42098335 -36.44893593 144.44907861 -40 149.5 C-44.70095631 156.18456089 -49.4640045 162.8217977 -54.2565918 169.44091797 C-59.20210323 176.27190094 -64.10767151 183.13086157 -69 190 C-68.35562988 189.85377197 -67.71125977 189.70754395 -67.04736328 189.55688477 C-64.07459077 188.88594837 -61.09984496 188.22418426 -58.125 187.5625 C-56.60519531 187.21735352 -56.60519531 187.21735352 -55.0546875 186.86523438 C-15.87326723 178.20011259 25.75532849 187.91663334 59.35546875 209.1171875 C98.35136747 235.30081364 122.14340146 274.02518433 131.23828125 319.73046875 C132.55898012 326.4659473 133.15913005 333.13181443 133.203125 339.98828125 C133.21018463 340.72474884 133.21724426 341.46121643 133.22451782 342.22000122 C133.4525309 372.99285697 133.4525309 372.99285697 130 387 C129.80664062 387.8132373 129.61328125 388.62647461 129.4140625 389.46435547 C122.00072104 419.85562334 107.50944705 446.36565318 86 469 C85.52191895 469.5053125 85.04383789 470.010625 84.55126953 470.53125 C73.26541216 482.38335897 61.22893944 491.81008719 47 500 C46.43087891 500.33241699 45.86175781 500.66483398 45.27539062 501.00732422 C30.57817648 509.52632543 14.5708349 515.32515366 -2 519 C-2.97018066 519.22429687 -2.97018066 519.22429687 -3.95996094 519.453125 C-46.94324147 529.03709529 -93.17660124 518.64025494 -130.11914062 495.68310547 C-169.48919007 470.16437281 -195.71678807 430.51452253 -205.77734375 385.0546875 C-214.54710904 343.0517817 -205.0621132 301.37060302 -185 264 C-184.6695166 263.36852051 -184.3390332 262.73704102 -183.99853516 262.08642578 C-177.66997588 250.01964649 -169.96609414 239.03299676 -162 228 C-161.17145508 226.85096191 -161.17145508 226.85096191 -160.32617188 225.67871094 C-158.18603696 222.71316899 -156.04380806 219.74918414 -153.89550781 216.78955078 C-149.8692959 211.2349372 -145.92249194 205.62822919 -142 200 C-136.98765653 192.80870833 -131.90243355 185.67621965 -126.75610352 178.58032227 C-121.09750535 170.7716463 -115.54599484 162.88885735 -110 155 C-103.34512836 145.53382944 -96.64575045 136.10428764 -89.85791016 126.73291016 C-84.16955257 118.87044158 -78.58109803 110.93878961 -73 103 C-66.92510058 94.35880644 -60.82657622 85.73839901 -54.625 77.1875 C-50.01877188 70.83572479 -45.48654333 64.43683652 -41 58 C-36.51345595 51.56316245 -31.9811836 45.16430836 -27.375 38.8125 C-18.07961744 25.99404922 -8.98091387 13.04046837 0 0 Z M-113 263 C-113.82757813 263.68449219 -114.65515625 264.36898438 -115.5078125 265.07421875 C-138.03058988 284.17268672 -150.64703656 312.82674857 -153.6875 341.8125 C-153.80894346 343.54053922 -153.91416194 345.26982663 -154 347 C-154.04125 347.75925781 -154.0825 348.51851563 -154.125 349.30078125 C-154.99357499 381.60091387 -142.19043307 411.9149134 -120.24023438 435.22192383 C-98.51514562 457.45598911 -68.77891261 469.29604098 -37.875 470.1875 C-13.99642361 469.80442123 9.54426449 463.0756929 29 449 C29.80179688 448.41992188 30.60359375 447.83984375 31.4296875 447.2421875 C56.18801689 428.33726506 72.40610348 401.40263897 77.52734375 370.64453125 C81.420302 337.76491609 73.98157511 305.11008283 53.40234375 278.90234375 C33.49555195 254.85234976 7.46090169 238.98507935 -24 235 C-57.00122911 232.6169848 -88.03669638 240.79743556 -113 263 Z " fill="#000000" transform="translate(5370,113)"/>
<path d="M0 0 C24.3912912 21.4264522 41.71121462 49.37654807 47.73535156 81.52441406 C47.91122803 82.44738281 48.08710449 83.37035156 48.26831055 84.32128906 C49.79005693 93.10127175 50.09553236 101.76357417 50.04785156 110.64941406 C50.04569641 111.37430023 50.04354126 112.0991864 50.0413208 112.84603882 C49.86129189 150.66511822 36.23647248 182.83229175 14.73535156 213.52441406 C14.35556152 214.0687207 13.97577148 214.61302734 13.58447266 215.17382812 C7.94444256 223.23750386 2.08610334 231.11420179 -3.97167969 238.86816406 C-5.30275716 240.57323007 -6.62757027 242.28304585 -7.95214844 243.99316406 C-13.36073786 250.95174668 -18.92832624 257.74457546 -24.65136719 264.44628906 C-27.04347113 267.25148726 -29.37920695 270.09904564 -31.70214844 272.96191406 C-36.60037083 278.97574583 -41.6537809 284.8507481 -46.71630859 290.72607422 C-49.23757788 293.65443587 -51.75073682 296.58973659 -54.26464844 299.52441406 C-55.26592374 300.69240577 -56.26722584 301.86037451 -57.26855469 303.02832031 C-59.25666119 305.34767008 -61.24354281 307.6680608 -63.22949219 309.98925781 C-71.08399655 319.16684368 -78.99124469 328.29789971 -86.91015625 337.41992188 C-92.71333749 344.10582112 -98.50854782 350.79790728 -104.26464844 357.52441406 C-111.10874989 365.52234493 -118.00946941 373.47082208 -124.91015625 381.41992188 C-126.54949704 383.30862169 -128.18846114 385.19764723 -129.82714844 387.08691406 C-130.36227051 387.70381104 -130.89739258 388.32070801 -131.44873047 388.95629883 C-135.63939917 393.79212497 -139.80734082 398.64713332 -143.95629883 403.51879883 C-147.99565046 408.24891079 -152.12898702 412.87179497 -156.26464844 417.52441406 C-88.61464844 417.85441406 -20.96464844 418.18441406 48.73535156 418.52441406 C48.73535156 436.01441406 48.73535156 453.50441406 48.73535156 471.52441406 C-56.86464844 471.52441406 -162.46464844 471.52441406 -271.26464844 471.52441406 C-267.89106858 465.90178096 -267.89106858 465.90178096 -265.54980469 463.24707031 C-264.77709229 462.36414307 -264.77709229 462.36414307 -263.98876953 461.46337891 C-263.44043457 460.84414551 -262.89209961 460.22491211 -262.32714844 459.58691406 C-261.15361629 458.24738129 -259.98044732 456.90753028 -258.80761719 455.56738281 C-257.91888916 454.55490479 -257.91888916 454.55490479 -257.01220703 453.52197266 C-254.36736379 450.49876682 -251.75144863 447.45116875 -249.13964844 444.39941406 C-248.6466626 443.82392822 -248.15367676 443.24844238 -247.64575195 442.65551758 C-243.88194458 438.25707514 -240.1416875 433.83900264 -236.40649414 429.41625977 C-233.06247048 425.45955401 -229.69990159 421.51915194 -226.32714844 417.58691406 C-225.83045654 417.00772217 -225.33376465 416.42853027 -224.82202148 415.83178711 C-222.26954425 412.85685365 -219.71394862 409.88464326 -217.15527344 406.91503906 C-212.56628933 401.58320772 -208.00587009 396.24111736 -203.57714844 390.77441406 C-200.0219694 386.39289611 -196.29695307 382.20730725 -192.49902344 378.03613281 C-190.26330311 375.52290174 -188.13087162 372.95129927 -186.01464844 370.33691406 C-180.80078406 363.89892501 -175.3542359 357.6727784 -169.91552734 351.42529297 C-163.01375758 343.47835725 -156.19777558 335.45763507 -149.40649414 327.41625977 C-146.06247048 323.45955401 -142.69990159 319.51915194 -139.32714844 315.58691406 C-138.83045654 315.00772217 -138.33376465 314.42853027 -137.82202148 313.83178711 C-135.26954425 310.85685365 -132.71394862 307.88464326 -130.15527344 304.91503906 C-125.56628933 299.58320772 -121.00587009 294.24111736 -116.57714844 288.77441406 C-113.0219694 284.39289611 -109.29695307 280.20730725 -105.49902344 276.03613281 C-102.47100096 272.6322544 -99.62618107 269.0925861 -96.76074219 265.55175781 C-93.92572478 262.11335642 -91.00911194 258.75504388 -88.07714844 255.39941406 C-80.96900686 247.24641851 -74.08711505 238.91717814 -67.26464844 230.52441406 C-66.73983887 229.87972168 -66.2150293 229.2350293 -65.67431641 228.57080078 C-42.19554467 199.66754608 -18.16630375 168.9980897 -8.26464844 132.52441406 C-7.89339844 131.18056641 -7.89339844 131.18056641 -7.51464844 129.80957031 C-2.05685374 105.81801444 -7.95657511 79.61062312 -20.59301758 58.9050293 C-24.76063934 52.42541698 -29.79496883 46.92051054 -35.26464844 41.52441406 C-35.93109375 40.85925781 -36.59753906 40.19410156 -37.28417969 39.50878906 C-55.26751428 22.69910368 -80.29375319 15.09164611 -104.45214844 15.21191406 C-106.23552612 15.22037354 -106.23552612 15.22037354 -108.05493164 15.22900391 C-132.38518355 15.56372507 -154.16279095 23.22985516 -171.96386719 40.09863281 C-189.97751939 59.09095542 -196.6940373 82.4276038 -201.26464844 107.52441406 C-201.92464844 110.82441406 -202.58464844 114.12441406 -203.26464844 117.52441406 C-221.74464844 117.52441406 -240.22464844 117.52441406 -259.26464844 117.52441406 C-257.07427497 82.47843855 -250.76998364 48.5217674 -228.26464844 20.52441406 C-227.83039551 19.97350098 -227.39614258 19.42258789 -226.94873047 18.85498047 C-201.32731664 -13.46900271 -165.66205823 -30.5168859 -125.51855469 -37.08886719 C-80.54834474 -42.18530159 -34.57481775 -29.36193832 0 0 Z " fill="#000000" transform="translate(4245.2646484375,155.4755859375)"/>
<path d="M0 0 C25.48870862 22.21605673 40.85276639 54.6142613 43.63671875 88.1953125 C45.55320926 123.13099028 38.35054722 158.32943257 14.44335938 185.08154297 C12.21621456 187.49478959 9.93045279 189.84520405 7.63671875 192.1953125 C6.76466797 193.16017578 6.76466797 193.16017578 5.875 194.14453125 C1.16910288 199.22974502 -4.49428666 203.02456216 -10.15625 206.9609375 C-12.59857758 208.66253479 -14.99898184 210.38835415 -17.36328125 212.1953125 C-16.46867187 212.68 -15.5740625 213.1646875 -14.65234375 213.6640625 C-6.95593901 217.90221319 -0.0190369 222.41009443 6.63671875 228.1953125 C7.4565625 228.88238281 8.27640625 229.56945312 9.12109375 230.27734375 C33.76247265 251.51331469 47.46515071 283.16409117 50.63671875 315.1953125 C50.78375701 317.95492489 50.82341288 320.70944806 50.83984375 323.47265625 C50.84554382 324.24227188 50.8512439 325.01188751 50.8571167 325.80482483 C50.86650507 327.4275681 50.87307593 329.05032991 50.87695312 330.6730957 C50.88657091 333.0955762 50.91761629 335.51717409 50.94921875 337.93945312 C51.04717693 352.20905902 49.11777814 365.73205429 44.82421875 379.3828125 C44.56487549 380.22030029 44.30553223 381.05778809 44.03833008 381.9206543 C35.34074983 409.35391059 18.5574189 433.68104869 -4.36328125 451.1953125 C-5.2140625 451.86175781 -6.06484375 452.52820313 -6.94140625 453.21484375 C-34.56620819 474.18157217 -68.23011897 483.67287542 -102.61328125 483.5078125 C-103.76781799 483.50557678 -103.76781799 483.50557678 -104.94567871 483.5032959 C-116.34036254 483.46364266 -127.26384615 482.917595 -138.36328125 480.1953125 C-139.62914063 479.90527344 -140.895 479.61523438 -142.19921875 479.31640625 C-169.35631827 472.62512091 -192.29126195 459.51500724 -212.36328125 440.1953125 C-213.00652344 439.61523438 -213.64976563 439.03515625 -214.3125 438.4375 C-238.92272418 415.60563701 -247.95810858 381.41196747 -250.36328125 349.1953125 C-250.36328125 347.5453125 -250.36328125 345.8953125 -250.36328125 344.1953125 C-232.21328125 344.1953125 -214.06328125 344.1953125 -195.36328125 344.1953125 C-194.04328125 350.4653125 -192.72328125 356.7353125 -191.36328125 363.1953125 C-186.64208115 377.25399725 -180.92998253 389.75737381 -171.36328125 401.1953125 C-170.28046875 402.6803125 -170.28046875 402.6803125 -169.17578125 404.1953125 C-153.75412731 422.20382452 -128.89132043 428.37302419 -106.36328125 430.1953125 C-81.93919229 431.84884744 -57.1047364 422.68714537 -38.546875 407.0390625 C-20.51537134 391.21230771 -7.75817854 368.26773367 -5.36328125 344.1953125 C-3.97553136 315.59197289 -6.72071149 288.82779087 -26.17578125 266.4453125 C-48.00448238 243.33643191 -79.43357212 240.04576099 -109.36328125 237.1953125 C-109.36328125 220.6953125 -109.36328125 204.1953125 -109.36328125 187.1953125 C-102.10328125 186.5353125 -94.84328125 185.8753125 -87.36328125 185.1953125 C-76.09880629 183.16630769 -65.77301188 180.96588225 -55.36328125 176.1953125 C-54.28691406 175.70417969 -53.21054687 175.21304688 -52.1015625 174.70703125 C-34.5854272 166.02151564 -22.82422814 151.58882067 -16.36328125 133.1953125 C-15.12163634 128.89320689 -14.14961866 124.60232292 -13.36328125 120.1953125 C-13.23179688 119.46441406 -13.1003125 118.73351562 -12.96484375 117.98046875 C-12.64265903 115.71211414 -12.48030811 113.48422011 -12.36328125 111.1953125 C-12.26660156 109.39900391 -12.26660156 109.39900391 -12.16796875 107.56640625 C-11.3131281 83.66803507 -18.48273155 60.78748045 -34.69140625 42.8359375 C-52.69732607 25.16657693 -74.59064345 18.7357498 -99.22998047 18.83398438 C-119.26535845 19.16146132 -138.57209859 23.46474443 -153.265625 37.9375 C-153.95785156 38.68257813 -154.65007812 39.42765625 -155.36328125 40.1953125 C-155.98332031 40.85789062 -156.60335937 41.52046875 -157.2421875 42.203125 C-170.53088605 57.84038549 -174.88338723 78.78243843 -179.36328125 98.1953125 C-197.51328125 98.1953125 -215.66328125 98.1953125 -234.36328125 98.1953125 C-233.23622739 85.79772008 -233.23622739 85.79772008 -232.1640625 81.28515625 C-231.92776123 80.28500488 -231.69145996 79.28485352 -231.44799805 78.25439453 C-231.1931665 77.22427246 -230.93833496 76.19415039 -230.67578125 75.1328125 C-230.40741455 74.04081543 -230.13904785 72.94881836 -229.86254883 71.82373047 C-221.06311744 36.76490268 -204.9409999 3.97546723 -173.36328125 -15.8046875 C-120.50953454 -47.01923392 -46.36412816 -39.149542 0 0 Z " fill="#000000" transform="translate(5025.36328125,151.8046875)"/>
</svg>
